<?xml version="1.0" encoding="UTF-8" standalone="no"?>
<svg
   xmlns:dc="http://purl.org/dc/elements/1.1/"
   xmlns:cc="http://creativecommons.org/ns#"
   xmlns:rdf="http://www.w3.org/1999/02/22-rdf-syntax-ns#"
   xmlns:svg="http://www.w3.org/2000/svg"
   xmlns="http://www.w3.org/2000/svg"
   xmlns:sodipodi="http://sodipodi.sourceforge.net/DTD/sodipodi-0.dtd"
   xmlns:inkscape="http://www.inkscape.org/namespaces/inkscape"
   version="1.1"
   id="svg2"
   height="403"
   width="1320"
   sodipodi:docname="inf73sup.svg"
   inkscape:version="0.92.4 (unknown)">
  <sodipodi:namedview
     pagecolor="#ffffff"
     bordercolor="#666666"
     borderopacity="1"
     objecttolerance="10"
     gridtolerance="10"
     guidetolerance="10"
     inkscape:pageopacity="0"
     inkscape:pageshadow="2"
     inkscape:window-width="1233"
     inkscape:window-height="1000"
     id="namedview123"
     showgrid="false"
     inkscape:zoom="0.44393939"
     inkscape:cx="459.48189"
     inkscape:cy="-157.35109"
     inkscape:window-x="47"
     inkscape:window-y="24"
     inkscape:window-maximized="1"
     inkscape:current-layer="svg2" />
  <defs
     id="defs4">
    <marker
       style="overflow:visible"
       id="Arrow2Lend"
       refX="0"
       refY="0"
       orient="auto">
      <path
         transform="matrix(-1.1,0,0,-1.1,-1.1,0)"
         d="M 8.7185878,4.0337352 -2.2072895,0.01601326 8.7185884,-4.0017078 c -1.7454984,2.3720609 -1.7354408,5.6174519 -6e-7,8.035443 z"
         style="fill-rule:evenodd;stroke-width:0.625;stroke-linejoin:round"
         id="path4279" />
    </marker>
    <marker
       style="overflow:visible"
       id="Arrow1Mend"
       refX="0"
       refY="0"
       orient="auto">
      <path
         transform="matrix(-0.4,0,0,-0.4,-4,0)"
         style="fill-rule:evenodd;stroke:#000000;stroke-width:1pt"
         d="M 0,0 5,-5 -12.5,0 5,5 0,0 z"
         id="path4267" />
    </marker>
    <marker
       style="overflow:visible"
       id="Arrow1Mend-4"
       refX="0"
       refY="0"
       orient="auto">
      <path
         transform="matrix(-0.4,0,0,-0.4,-4,0)"
         style="fill-rule:evenodd;stroke:#000000;stroke-width:1pt"
         d="M 0,0 5,-5 -12.5,0 5,5 0,0 z"
         id="path4267-1" />
    </marker>
  </defs>
  <metadata
     id="metadata7">
    <rdf:RDF>
      <cc:Work
         rdf:about="">
        <dc:format>image/svg+xml</dc:format>
        <dc:type
           rdf:resource="http://purl.org/dc/dcmitype/StillImage" />
        <dc:title />
      </cc:Work>
    </rdf:RDF>
  </metadata>
  <g
     transform="translate(341.01016,-663.09784)"
     id="layer1">
    <path
       id="rect4015-01-4"
       transform="translate(-341.01016,663.09784)"
       d="M 11.773438 14.429688 L 11.773438 92.148438 L 118.39844 92.148438 L 118.39844 14.429688 L 11.773438 14.429688 z M 122.39844 14.429688 L 122.39844 92.148438 L 172.58594 92.148438 L 172.58594 14.429688 L 122.39844 14.429688 z M 176.58594 14.429688 L 176.58594 92.148438 L 226.80469 92.148438 L 226.80469 14.429688 L 176.58594 14.429688 z M 230.80469 14.429688 L 230.80469 92.148438 L 281.02344 92.148438 L 281.02344 14.429688 L 230.80469 14.429688 z M 285.02344 14.429688 L 285.02344 92.148438 L 335.24219 92.148438 L 335.24219 14.429688 L 285.02344 14.429688 z M 339.24219 14.429688 L 339.24219 92.148438 L 389.46094 92.148438 L 389.46094 14.429688 L 339.24219 14.429688 z M 393.46094 14.429688 L 393.46094 92.148438 L 443.67969 92.148438 L 443.67969 14.429688 L 393.46094 14.429688 z M 447.67969 14.429688 L 447.67969 92.148438 L 497.86719 92.148438 L 497.86719 14.429688 L 447.67969 14.429688 z M 501.86719 14.429688 L 501.86719 92.148438 L 552.08594 92.148438 L 552.08594 14.429688 L 501.86719 14.429688 z M 556.08594 14.429688 L 556.08594 92.148438 L 606.30469 92.148438 L 606.30469 14.429688 L 556.08594 14.429688 z M 610.30469 14.429688 L 610.30469 92.148438 L 660.52344 92.148438 L 660.52344 14.429688 L 610.30469 14.429688 z M 664.52344 14.429688 L 664.52344 92.148438 L 741.36719 92.148438 L 741.36719 14.429688 L 664.52344 14.429688 z M 745.36719 14.429688 L 745.36719 92.148438 L 822.17969 92.148438 L 822.17969 14.429688 L 745.36719 14.429688 z M 826.17969 14.429688 L 826.17969 92.148438 L 903.02344 92.148438 L 903.02344 14.429688 L 826.17969 14.429688 z M 907.02344 14.429688 L 907.02344 92.148438 L 983.86719 92.148438 L 983.86719 14.429688 L 907.02344 14.429688 z M 987.86719 14.429688 L 987.86719 92.148438 L 1038.3672 92.148438 L 1038.3672 14.429688 L 987.86719 14.429688 z M 1042.3672 14.429688 L 1042.3672 92.148438 L 1092.8672 92.148438 L 1092.8672 14.429688 L 1042.3672 14.429688 z M 1096.8672 14.429688 L 1096.8672 92.148438 L 1147.2109 92.148438 L 1147.2109 14.429688 L 1096.8672 14.429688 z M 1151.2109 14.429688 L 1151.2109 93.273438 L 1151.2109 165.89844 L 1227.8984 165.89844 L 1227.8984 14.429688 L 1151.2109 14.429688 z M 1231.8984 14.429688 L 1231.8984 165.89844 L 1290.6484 165.89844 L 1290.6484 175.77344 L 1311.2734 175.77344 L 1311.2734 14.429688 L 1231.8984 14.429688 z M 11.773438 96.148438 L 11.773438 175.33594 L 34.023438 175.33594 L 34.023438 165.21094 L 34.054688 165.21094 L 34.054688 165.17969 L 90.992188 165.17969 L 90.992188 96.148438 L 11.773438 96.148438 z M 94.992188 96.148438 L 94.992188 169.17969 L 38.023438 169.17969 L 38.023438 219.08594 L 94.992188 219.08594 L 94.992188 303.49219 L 160.24219 303.49219 L 160.24219 299.96094 L 190.24219 299.96094 L 190.24219 303.49219 L 323.30469 303.49219 L 323.30469 299.96094 L 353.30469 299.96094 L 353.30469 303.49219 L 484.55469 303.49219 L 484.55469 299.96094 L 514.55469 299.96094 L 514.55469 303.49219 L 646.83594 303.49219 L 646.83594 299.96094 L 676.83594 299.96094 L 676.83594 303.49219 L 810.89844 303.49219 L 810.89844 299.96094 L 840.89844 299.96094 L 840.89844 303.49219 L 971.77344 303.49219 L 971.77344 299.96094 L 1001.7734 299.96094 L 1001.7734 303.49219 L 1147.2109 303.49219 L 1147.2109 229.96094 L 1147.2109 216.61719 L 1287.4609 216.61719 L 1287.4609 169.89844 L 1147.2109 169.89844 L 1147.2109 96.148438 L 1001.7734 96.148438 L 1001.7734 99.773438 L 971.77344 99.773438 L 971.77344 96.148438 L 840.89844 96.148438 L 840.89844 99.773438 L 810.89844 99.773438 L 810.89844 96.148438 L 676.83594 96.148438 L 676.83594 99.773438 L 646.83594 99.773438 L 646.83594 96.148438 L 514.55469 96.148438 L 514.55469 99.773438 L 484.55469 99.773438 L 484.55469 96.148438 L 353.30469 96.148438 L 353.30469 99.773438 L 323.30469 99.773438 L 323.30469 96.148438 L 190.24219 96.148438 L 190.24219 99.773438 L 160.24219 99.773438 L 160.24219 96.148438 L 94.992188 96.148438 z M 160.17969 141.49219 L 190.17969 141.49219 L 190.17969 144.83594 L 323.24219 144.83594 L 323.24219 141.49219 L 353.24219 141.49219 L 353.24219 144.83594 L 484.49219 144.83594 L 484.49219 141.49219 L 503.61719 141.49219 L 503.61719 148.49219 L 500.14844 148.49219 L 500.14844 250.64844 L 503.58594 250.64844 L 503.58594 257.64844 L 484.46094 257.64844 L 484.46094 254.55469 L 353.21094 254.55469 L 353.21094 257.64844 L 323.21094 257.64844 L 323.21094 254.55469 L 190.14844 254.55469 L 190.14844 257.64844 L 160.17969 257.64844 L 160.17969 250.55469 L 200.80469 250.55469 L 200.80469 148.83594 L 160.17969 148.83594 L 160.17969 141.49219 z M 548.49219 141.49219 L 558.99219 141.49219 L 558.99219 144.83594 L 632.89844 144.83594 L 632.89844 144.71094 L 636.89844 144.71094 L 636.89844 144.83594 L 646.96094 144.83594 L 646.96094 141.49219 L 676.96094 141.49219 L 676.96094 144.83594 L 810.83594 144.83594 L 810.83594 141.49219 L 840.83594 141.49219 L 840.83594 144.83594 L 971.71094 144.83594 L 971.71094 141.49219 L 1001.7109 141.49219 L 1001.7109 144.83594 L 1101.7109 144.83594 L 1101.7109 148.83594 L 1097.4609 148.83594 L 1097.4609 250.55469 L 1101.7109 250.55469 L 1101.7109 254.55469 L 1001.6797 254.55469 L 1001.6797 257.64844 L 971.67969 257.64844 L 971.67969 254.55469 L 840.80469 254.55469 L 840.80469 257.64844 L 810.80469 257.64844 L 810.80469 254.55469 L 676.92969 254.55469 L 676.92969 257.64844 L 646.92969 257.64844 L 646.92969 254.55469 L 558.96094 254.55469 L 558.96094 257.64844 L 548.46094 257.64844 L 548.46094 250.64844 L 551.14844 250.64844 L 551.14844 148.49219 L 548.49219 148.49219 L 548.49219 141.49219 z M 204.80469 148.83594 L 204.80469 250.55469 L 308.64844 250.55469 L 308.64844 148.83594 L 204.80469 148.83594 z M 312.64844 148.83594 L 312.64844 250.55469 L 444.36719 250.55469 L 444.36719 148.83594 L 312.64844 148.83594 z M 448.36719 148.83594 L 448.36719 250.55469 L 496.14844 250.55469 L 496.14844 148.83594 L 448.36719 148.83594 z M 555.14844 148.83594 L 555.14844 250.55469 L 632.89844 250.55469 L 632.89844 148.83594 L 555.14844 148.83594 z M 636.89844 148.83594 L 636.89844 250.55469 L 717.77344 250.55469 L 717.77344 148.83594 L 636.89844 148.83594 z M 721.77344 148.83594 L 721.77344 250.55469 L 794.52344 250.55469 L 794.52344 148.83594 L 721.77344 148.83594 z M 798.52344 148.83594 L 798.52344 250.55469 L 875.86719 250.55469 L 875.86719 148.83594 L 798.52344 148.83594 z M 879.86719 148.83594 L 879.86719 250.55469 L 956.14844 250.55469 L 956.14844 148.83594 L 879.86719 148.83594 z M 960.14844 148.83594 L 960.14844 250.55469 L 1093.4609 250.55469 L 1093.4609 148.83594 L 960.14844 148.83594 z M 1151.2109 220.61719 L 1151.2109 229.96094 L 1151.2109 386.05469 L 1228.9297 386.05469 L 1228.9297 220.61719 L 1151.2109 220.61719 z M 1232.9297 220.61719 L 1232.9297 386.05469 L 1311.2734 386.05469 L 1311.2734 220.61719 L 1232.9297 220.61719 z M 11.773438 223.08594 L 11.773438 303.49219 L 90.992188 303.49219 L 90.992188 223.08594 L 11.773438 223.08594 z M 11.773438 307.49219 L 11.773438 386.05469 L 118.39844 386.05469 L 118.39844 307.49219 L 11.773438 307.49219 z M 122.39844 307.49219 L 122.39844 386.05469 L 172.58594 386.05469 L 172.58594 307.49219 L 122.39844 307.49219 z M 176.58594 307.49219 L 176.58594 386.05469 L 226.80469 386.05469 L 226.80469 307.49219 L 176.58594 307.49219 z M 230.80469 307.49219 L 230.80469 386.05469 L 281.02344 386.05469 L 281.02344 307.49219 L 230.80469 307.49219 z M 285.02344 307.49219 L 285.02344 386.05469 L 335.24219 386.05469 L 335.24219 307.49219 L 285.02344 307.49219 z M 339.24219 307.49219 L 339.24219 386.05469 L 389.46094 386.05469 L 389.46094 307.49219 L 339.24219 307.49219 z M 393.46094 307.49219 L 393.46094 386.05469 L 443.67969 386.05469 L 443.67969 307.49219 L 393.46094 307.49219 z M 447.67969 307.49219 L 447.67969 386.05469 L 497.86719 386.05469 L 497.86719 307.49219 L 447.67969 307.49219 z M 501.86719 307.49219 L 501.86719 386.05469 L 552.08594 386.05469 L 552.08594 307.49219 L 501.86719 307.49219 z M 556.08594 307.49219 L 556.08594 386.05469 L 606.30469 386.05469 L 606.30469 307.49219 L 556.08594 307.49219 z M 610.30469 307.49219 L 610.30469 386.05469 L 660.52344 386.05469 L 660.52344 307.49219 L 610.30469 307.49219 z M 664.52344 307.49219 L 664.52344 386.05469 L 741.36719 386.05469 L 741.36719 307.49219 L 664.52344 307.49219 z M 745.36719 307.49219 L 745.36719 386.05469 L 822.17969 386.05469 L 822.17969 307.49219 L 745.36719 307.49219 z M 826.17969 307.49219 L 826.17969 386.05469 L 903.02344 386.05469 L 903.02344 307.49219 L 826.17969 307.49219 z M 907.02344 307.49219 L 907.02344 386.05469 L 983.86719 386.05469 L 983.86719 307.49219 L 907.02344 307.49219 z M 987.86719 307.49219 L 987.86719 386.05469 L 1038.3672 386.05469 L 1038.3672 307.49219 L 987.86719 307.49219 z M 1042.3672 307.49219 L 1042.3672 386.05469 L 1092.8672 386.05469 L 1092.8672 307.49219 L 1042.3672 307.49219 z M 1096.8672 307.49219 L 1096.8672 386.05469 L 1147.2109 386.05469 L 1147.2109 307.49219 L 1096.8672 307.49219 z "
       style="fill:#ffff00;fill-opacity:0.70588235;stroke:#000000;stroke-width:1.00132465;stroke-miterlimit:4;stroke-dasharray:none" />
    <text
       transform="scale(-1,-1)"
       id="text3014-7"
       y="-971.66718"
       x="222.55414"
       style="font-style:normal;font-variant:normal;font-weight:bold;font-stretch:normal;font-size:12.5px;line-height:125%;font-family:Sans;-inkscape-font-specification:'Sans Bold';letter-spacing:0px;word-spacing:0px;fill:#000000;fill-opacity:1;stroke:none"
       xml:space="preserve"><tspan
         style="font-size:12px;line-height:1.25;font-family:sans-serif"
         y="-971.66718"
         x="222.55414"
         id="tspan3016-3">204</tspan></text>
    <text
       transform="matrix(0,-1,1,0,0,0)"
       id="text3014-7-7"
       y="-250.58975"
       x="-916.27533"
       style="font-style:normal;font-variant:normal;font-weight:bold;font-stretch:normal;font-size:12.5px;line-height:125%;font-family:Sans;-inkscape-font-specification:'Sans Bold';letter-spacing:0px;word-spacing:0px;fill:#000000;fill-opacity:1;stroke:none"
       xml:space="preserve"><tspan
         style="font-size:12px;line-height:1.25;font-family:sans-serif"
         y="-250.58975"
         x="-916.27533"
         id="tspan3016-3-5">202</tspan></text>
    <text
       transform="scale(-1,-1)"
       id="text3014-7-9"
       y="-970.66711"
       x="189.01091"
       style="font-style:normal;font-variant:normal;font-weight:bold;font-stretch:normal;font-size:12.5px;line-height:125%;font-family:Sans;-inkscape-font-specification:'Sans Bold';letter-spacing:0px;word-spacing:0px;fill:#000000;fill-opacity:1;stroke:none"
       xml:space="preserve"><tspan
         style="font-size:12px;line-height:1.25;font-family:sans-serif"
         y="-970.66711"
         x="189.01091"
         id="tspan3016-3-7">206</tspan></text>
    <text
       transform="scale(-1,-1)"
       id="text3014-7-2"
       y="-970.66718"
       x="116.77399"
       style="font-style:normal;font-variant:normal;font-weight:bold;font-stretch:normal;font-size:12.5px;line-height:125%;font-family:Sans;-inkscape-font-specification:'Sans Bold';letter-spacing:0px;word-spacing:0px;fill:#000000;fill-opacity:1;stroke:none"
       xml:space="preserve"><tspan
         style="font-size:12px;line-height:1.25;font-family:sans-serif"
         y="-970.66718"
         x="116.77399"
         id="tspan3016-3-0">208</tspan></text>
    <text
       transform="scale(-1,-1)"
       id="text3014-7-5"
       y="-970.66718"
       x="80.445511"
       style="font-style:normal;font-variant:normal;font-weight:bold;font-stretch:normal;font-size:12.5px;line-height:125%;font-family:Sans;-inkscape-font-specification:'Sans Bold';letter-spacing:0px;word-spacing:0px;fill:#000000;fill-opacity:1;stroke:none"
       xml:space="preserve"><tspan
         style="font-size:12px;line-height:1.25;font-family:sans-serif"
         y="-970.66718"
         x="80.445511"
         id="tspan3016-3-9">210</tspan></text>
    <text
       transform="scale(-1,-1)"
       id="text3014-7-0"
       y="-970.49017"
       x="26.013271"
       style="font-style:normal;font-variant:normal;font-weight:bold;font-stretch:normal;font-size:12.5px;line-height:125%;font-family:Sans;-inkscape-font-specification:'Sans Bold';letter-spacing:0px;word-spacing:0px;fill:#000000;fill-opacity:1;stroke:none"
       xml:space="preserve"><tspan
         style="font-size:12px;line-height:1.25;font-family:sans-serif"
         y="-970.49017"
         x="26.013271"
         id="tspan3016-3-4">214</tspan></text>
    <text
       transform="scale(-1,-1)"
       id="text3014-7-6"
       y="-970.66711"
       x="-46.205353"
       style="font-style:normal;font-variant:normal;font-weight:bold;font-stretch:normal;font-size:12.5px;line-height:125%;font-family:Sans;-inkscape-font-specification:'Sans Bold';letter-spacing:0px;word-spacing:0px;fill:#000000;fill-opacity:1;stroke:none"
       xml:space="preserve"><tspan
         style="font-size:12px;line-height:1.25;font-family:sans-serif"
         y="-970.66711"
         x="-46.205353"
         id="tspan3016-3-00">216</tspan></text>
    <text
       transform="scale(-1,-1)"
       id="text3014-7-79"
       y="-970.66718"
       x="-82.442291"
       style="font-style:normal;font-variant:normal;font-weight:bold;font-stretch:normal;font-size:12.5px;line-height:125%;font-family:Sans;-inkscape-font-specification:'Sans Bold';letter-spacing:0px;word-spacing:0px;fill:#000000;fill-opacity:1;stroke:none"
       xml:space="preserve"><tspan
         style="font-size:12px;line-height:1.25;font-family:sans-serif"
         y="-970.66718"
         x="-82.442291"
         id="tspan3016-3-02">218</tspan></text>
    <text
       transform="scale(-1,-1)"
       id="text3014-7-8"
       y="-970.49017"
       x="-136.34964"
       style="font-style:normal;font-variant:normal;font-weight:bold;font-stretch:normal;font-size:12.5px;line-height:125%;font-family:Sans;-inkscape-font-specification:'Sans Bold';letter-spacing:0px;word-spacing:0px;fill:#000000;fill-opacity:1;stroke:none"
       xml:space="preserve"><tspan
         style="font-size:12px;line-height:1.25;font-family:sans-serif"
         y="-970.49017"
         x="-136.34964"
         id="tspan3016-3-3">222</tspan></text>
    <text
       transform="scale(-1,-1)"
       id="text3014-7-99"
       y="-970.66711"
       x="-205.11758"
       style="font-style:normal;font-variant:normal;font-weight:bold;font-stretch:normal;font-size:12.5px;line-height:125%;font-family:Sans;-inkscape-font-specification:'Sans Bold';letter-spacing:0px;word-spacing:0px;fill:#000000;fill-opacity:1;stroke:none"
       xml:space="preserve"><tspan
         style="font-size:12px;line-height:1.25;font-family:sans-serif"
         y="-970.66711"
         x="-205.11758"
         id="tspan3016-3-2">226</tspan></text>
    <text
       transform="scale(-1,-1)"
       id="text3014-7-87"
       y="-970.66718"
       x="-245.35452"
       style="font-style:normal;font-variant:normal;font-weight:bold;font-stretch:normal;font-size:12.5px;line-height:125%;font-family:Sans;-inkscape-font-specification:'Sans Bold';letter-spacing:0px;word-spacing:0px;fill:#000000;fill-opacity:1;stroke:none"
       xml:space="preserve"><tspan
         style="font-size:12px;line-height:1.25;font-family:sans-serif"
         y="-970.66718"
         x="-245.35452"
         id="tspan3016-3-6">228</tspan></text>
    <text
       transform="scale(-1,-1)"
       id="text3014-7-26"
       y="-970.66718"
       x="-299.68301"
       style="font-style:normal;font-variant:normal;font-weight:bold;font-stretch:normal;font-size:12.5px;line-height:125%;font-family:Sans;-inkscape-font-specification:'Sans Bold';letter-spacing:0px;word-spacing:0px;fill:#000000;fill-opacity:1;stroke:none"
       xml:space="preserve"><tspan
         style="font-size:12px;line-height:1.25;font-family:sans-serif"
         y="-970.66718"
         x="-299.68301"
         id="tspan3016-3-27">230</tspan></text>
    <text
       transform="scale(-1,-1)"
       id="text3014-7-99-3"
       y="-970.49017"
       x="-694.96619"
       style="font-style:normal;font-variant:normal;font-weight:bold;font-stretch:normal;font-size:12.5px;line-height:125%;font-family:Sans;-inkscape-font-specification:'Sans Bold';letter-spacing:0px;word-spacing:0px;fill:#000000;fill-opacity:1;stroke:none"
       xml:space="preserve"><tspan
         style="font-size:12px;line-height:1.25;font-family:sans-serif"
         y="-970.49017"
         x="-694.96619"
         id="tspan3016-3-2-5">244</tspan></text>
    <text
       transform="scale(-1,-1)"
       id="text3014-7-87-7"
       y="-970.66711"
       x="-729.18481"
       style="font-style:normal;font-variant:normal;font-weight:bold;font-stretch:normal;font-size:12.5px;line-height:125%;font-family:Sans;-inkscape-font-specification:'Sans Bold';letter-spacing:0px;word-spacing:0px;fill:#000000;fill-opacity:1;stroke:none"
       xml:space="preserve"><tspan
         style="font-size:12px;line-height:1.25;font-family:sans-serif"
         y="-970.66711"
         x="-729.18481"
         id="tspan3016-3-6-8">246</tspan></text>
    <text
       transform="scale(-1)"
       id="text3014-7-26-3"
       y="-970.66718"
       x="-771.74988"
       style="font-style:normal;font-variant:normal;font-weight:bold;font-stretch:normal;font-size:12.5px;line-height:125%;font-family:Sans;-inkscape-font-specification:'Sans Bold';letter-spacing:0px;word-spacing:0px;fill:#000000;fill-opacity:1;stroke:none;text-anchor:middle;text-align:center;"
       xml:space="preserve"><tspan
         style="font-size:12px;line-height:1.25;font-family:sans-serif;text-anchor:middle;text-align:center;"
         y="-970.66718"
         x="-783.42175"
         id="tspan3016-3-27-6">248</tspan></text>
    <text
       transform="scale(-1,-1)"
       id="text3014-7-8-4"
       y="-970.66718"
       x="-369.21402"
       style="font-style:normal;font-variant:normal;font-weight:bold;font-stretch:normal;font-size:12.5px;line-height:125%;font-family:Sans;-inkscape-font-specification:'Sans Bold';letter-spacing:0px;word-spacing:0px;fill:#000000;fill-opacity:1;stroke:none"
       xml:space="preserve"><tspan
         style="font-size:12px;line-height:1.25;font-family:sans-serif"
         y="-970.66718"
         x="-369.21402"
         id="tspan3016-3-3-7">234</tspan></text>
    <text
       transform="scale(-1,-1)"
       id="text3014-7-99-2"
       y="-970.66711"
       x="-448.41708"
       style="font-style:normal;font-variant:normal;font-weight:bold;font-stretch:normal;font-size:12.5px;line-height:125%;font-family:Sans;-inkscape-font-specification:'Sans Bold';letter-spacing:0px;word-spacing:0px;fill:#000000;fill-opacity:1;stroke:none"
       xml:space="preserve"><tspan
         style="font-size:12px;line-height:1.25;font-family:sans-serif"
         y="-970.66711"
         x="-448.41708"
         id="tspan3016-3-2-8">236</tspan></text>
    <text
       transform="scale(-1,-1)"
       id="text3014-7-87-6"
       y="-970.66718"
       x="-527.66284"
       style="font-style:normal;font-variant:normal;font-weight:bold;font-stretch:normal;font-size:12.5px;line-height:125%;font-family:Sans;-inkscape-font-specification:'Sans Bold';letter-spacing:0px;word-spacing:0px;fill:#000000;fill-opacity:1;stroke:none"
       xml:space="preserve"><tspan
         style="font-size:12px;line-height:1.25;font-family:sans-serif"
         y="-970.66718"
         x="-527.66284"
         id="tspan3016-3-6-7">240</tspan></text>
    <text
       transform="scale(-1,-1)"
       id="text3014-7-26-4"
       y="-970.49017"
       x="-606.53027"
       style="font-style:normal;font-variant:normal;font-weight:bold;font-stretch:normal;font-size:12.5px;line-height:125%;font-family:Sans;-inkscape-font-specification:'Sans Bold';letter-spacing:0px;word-spacing:0px;fill:#000000;fill-opacity:1;stroke:none"
       xml:space="preserve"><tspan
         style="font-size:12px;line-height:1.25;font-family:sans-serif"
         y="-970.49017"
         x="-606.53027"
         id="tspan3016-3-27-3">242</tspan></text>
    <text
       id="text3014-7-80"
       y="753.52344"
       x="-250.25964"
       style="font-style:normal;font-variant:normal;font-weight:bold;font-stretch:normal;font-size:12.5px;line-height:125%;font-family:Sans;-inkscape-font-specification:'Sans Bold';letter-spacing:0px;word-spacing:0px;fill:#000000;fill-opacity:1;stroke:none"
       xml:space="preserve"><tspan
         style="font-size:12px;line-height:1.25;font-family:sans-serif"
         y="753.52344"
         x="-250.25964"
         id="tspan3016-3-72">203</tspan></text>
    <text
       id="text3014-7-9-7"
       y="753.52344"
       x="-205.22005"
       style="font-style:normal;font-variant:normal;font-weight:bold;font-stretch:normal;font-size:12.5px;line-height:125%;font-family:Sans;-inkscape-font-specification:'Sans Bold';letter-spacing:0px;word-spacing:0px;fill:#000000;fill-opacity:1;stroke:none"
       xml:space="preserve"><tspan
         style="font-size:12px;line-height:1.25;font-family:sans-serif"
         y="753.52344"
         x="-205.22005"
         id="tspan3016-3-7-0">205</tspan></text>
    <text
       id="text3014-7-2-8"
       y="753.52344"
       x="-144.91603"
       style="font-style:normal;font-variant:normal;font-weight:bold;font-stretch:normal;font-size:12.5px;line-height:125%;font-family:Sans;-inkscape-font-specification:'Sans Bold';letter-spacing:0px;word-spacing:0px;fill:#000000;fill-opacity:1;stroke:none"
       xml:space="preserve"><tspan
         style="font-size:12px;line-height:1.25;font-family:sans-serif"
         y="753.52344"
         x="-144.91603"
         id="tspan3016-3-0-5">207</tspan></text>
    <text
       id="text3014-7-5-7"
       y="753.52344"
       x="-104.61195"
       style="font-style:normal;font-variant:normal;font-weight:bold;font-stretch:normal;font-size:12.5px;line-height:125%;font-family:Sans;-inkscape-font-specification:'Sans Bold';letter-spacing:0px;word-spacing:0px;fill:#000000;fill-opacity:1;stroke:none"
       xml:space="preserve"><tspan
         style="font-size:12px;line-height:1.25;font-family:sans-serif"
         dx="0 0 0"
         y="753.52344"
         x="-104.61195"
         id="tspan3016-3-9-2">211</tspan></text>
    <text
       id="text3014-7-0-4"
       y="753.52344"
       x="-50.307907"
       style="font-style:normal;font-variant:normal;font-weight:bold;font-stretch:normal;font-size:12.5px;line-height:125%;font-family:Sans;-inkscape-font-specification:'Sans Bold';letter-spacing:0px;word-spacing:0px;fill:#000000;fill-opacity:1;stroke:none"
       xml:space="preserve"><tspan
         style="font-size:12px;line-height:1.25;font-family:sans-serif"
         dx="0"
         y="753.52344"
         x="-50.307907"
         id="tspan3016-3-4-7">213</tspan></text>
    <text
       id="text3014-7-6-4"
       y="753.52344"
       x="17.99617"
       style="font-style:normal;font-variant:normal;font-weight:bold;font-stretch:normal;font-size:12.5px;line-height:125%;font-family:Sans;-inkscape-font-specification:'Sans Bold';letter-spacing:0px;word-spacing:0px;fill:#000000;fill-opacity:1;stroke:none"
       xml:space="preserve"><tspan
         style="font-size:12px;line-height:1.25;font-family:sans-serif"
         y="753.52344"
         x="17.99617"
         id="tspan3016-3-00-3">215</tspan></text>
    <text
       id="text3014-7-79-5"
       y="753.52344"
       x="58.300247"
       style="font-style:normal;font-variant:normal;font-weight:bold;font-stretch:normal;font-size:12.5px;line-height:125%;font-family:Sans;-inkscape-font-specification:'Sans Bold';letter-spacing:0px;word-spacing:0px;fill:#000000;fill-opacity:1;stroke:none"
       xml:space="preserve"><tspan
         style="font-size:12px;line-height:1.25;font-family:sans-serif"
         y="753.52344"
         x="58.300247"
         id="tspan3016-3-02-8">217</tspan></text>
    <text
       id="text3014-7-8-3"
       y="753.52344"
       x="112.60432"
       style="font-style:normal;font-variant:normal;font-weight:bold;font-stretch:normal;font-size:12.5px;line-height:125%;font-family:Sans;-inkscape-font-specification:'Sans Bold';letter-spacing:0px;word-spacing:0px;fill:#000000;fill-opacity:1;stroke:none"
       xml:space="preserve"><tspan
         style="font-size:12px;line-height:1.25;font-family:sans-serif"
         y="753.52344"
         x="112.60432"
         id="tspan3016-3-3-0">219</tspan></text>
    <text
       id="text3014-7-99-31"
       y="753.52344"
       x="184.90842"
       style="font-style:normal;font-variant:normal;font-weight:bold;font-stretch:normal;font-size:12.5px;line-height:125%;font-family:Sans;-inkscape-font-specification:'Sans Bold';letter-spacing:0px;word-spacing:0px;fill:#000000;fill-opacity:1;stroke:none"
       xml:space="preserve"><tspan
         style="font-size:12px;line-height:1.25;font-family:sans-serif"
         y="753.52344"
         x="184.90842"
         id="tspan3016-3-2-0">221</tspan></text>
    <text
       id="text3014-7-87-9"
       y="753.52344"
       x="221.21251"
       style="font-style:normal;font-variant:normal;font-weight:bold;font-stretch:normal;font-size:12.5px;line-height:125%;font-family:Sans;-inkscape-font-specification:'Sans Bold';letter-spacing:0px;word-spacing:0px;fill:#000000;fill-opacity:1;stroke:none"
       xml:space="preserve"><tspan
         style="font-size:12px;line-height:1.25;font-family:sans-serif"
         y="753.52344"
         x="221.21251"
         id="tspan3016-3-6-9">223</tspan></text>
    <text
       id="text3014-7-26-46"
       y="753.52344"
       x="275.5166"
       style="font-style:normal;font-variant:normal;font-weight:bold;font-stretch:normal;font-size:12.5px;line-height:125%;font-family:Sans;-inkscape-font-specification:'Sans Bold';letter-spacing:0px;word-spacing:0px;fill:#000000;fill-opacity:1;stroke:none"
       xml:space="preserve"><tspan
         style="font-size:12px;line-height:1.25;font-family:sans-serif"
         y="753.52344"
         x="275.5166"
         id="tspan3016-3-27-4">227</tspan></text>
    <text
       id="text3014-7-99-3-3"
       y="753.52344"
       x="668.67157"
       style="font-style:normal;font-variant:normal;font-weight:bold;font-stretch:normal;font-size:12.5px;line-height:125%;font-family:Sans;-inkscape-font-specification:'Sans Bold';letter-spacing:0px;word-spacing:0px;fill:#000000;fill-opacity:1;stroke:none"
       xml:space="preserve"><tspan
         style="font-size:12px;line-height:1.25;font-family:sans-serif"
         y="753.52344"
         x="668.67157"
         id="tspan3016-3-2-5-3">241</tspan></text>
    <text
       id="text3014-7-87-7-1"
       y="753.52344"
       x="704.97565"
       style="font-style:normal;font-variant:normal;font-weight:bold;font-stretch:normal;font-size:12.5px;line-height:125%;font-family:Sans;-inkscape-font-specification:'Sans Bold';letter-spacing:0px;word-spacing:0px;fill:#000000;fill-opacity:1;stroke:none"
       xml:space="preserve"><tspan
         style="font-size:12px;line-height:1.25;font-family:sans-serif"
         y="753.52344"
         x="704.97565"
         id="tspan3016-3-6-8-9">243</tspan></text>
    <text
       id="text3014-7-26-3-8"
       y="753.52344"
       x="759.27966"
       style="font-style:normal;font-variant:normal;font-weight:bold;font-stretch:normal;font-size:12.5px;line-height:125%;font-family:Sans;-inkscape-font-specification:'Sans Bold';letter-spacing:0px;word-spacing:0px;fill:#000000;fill-opacity:1;stroke:none"
       xml:space="preserve"><tspan
         style="font-size:12px;line-height:1.25;font-family:sans-serif"
         y="753.52344"
         x="759.27966"
         id="tspan3016-3-27-6-9">247</tspan></text>
    <text
       id="text3014-7-8-4-9"
       y="753.52344"
       x="354.91943"
       style="font-style:normal;font-variant:normal;font-weight:bold;font-stretch:normal;font-size:12.5px;line-height:125%;font-family:Sans;-inkscape-font-specification:'Sans Bold';letter-spacing:0px;word-spacing:0px;fill:#000000;fill-opacity:1;stroke:none"
       xml:space="preserve"><tspan
         style="font-size:12px;line-height:1.25;font-family:sans-serif"
         y="753.52344"
         x="354.91943"
         id="tspan3016-3-3-7-7">229</tspan></text>
    <text
       id="text3014-7-99-2-2"
       y="753.52344"
       x="424.20789"
       style="font-style:normal;font-variant:normal;font-weight:bold;font-stretch:normal;font-size:12.5px;line-height:125%;font-family:Sans;-inkscape-font-specification:'Sans Bold';letter-spacing:0px;word-spacing:0px;fill:#000000;fill-opacity:1;stroke:none"
       xml:space="preserve"><tspan
         style="font-size:12px;line-height:1.25;font-family:sans-serif"
         y="753.52344"
         x="424.20789"
         id="tspan3016-3-2-8-8">231</tspan></text>
    <text
       id="text3014-7-87-6-7"
       y="753.52344"
       x="515.49646"
       style="font-style:normal;font-variant:normal;font-weight:bold;font-stretch:normal;font-size:12.5px;line-height:125%;font-family:Sans;-inkscape-font-specification:'Sans Bold';letter-spacing:0px;word-spacing:0px;fill:#000000;fill-opacity:1;stroke:none"
       xml:space="preserve"><tspan
         style="font-size:12px;line-height:1.25;font-family:sans-serif"
         y="753.52344"
         x="515.49646"
         id="tspan3016-3-6-7-0">235</tspan></text>
    <text
       id="text3014-7-26-4-4"
       y="753.52344"
       x="582.78497"
       style="font-style:normal;font-variant:normal;font-weight:bold;font-stretch:normal;font-size:12.5px;line-height:125%;font-family:Sans;-inkscape-font-specification:'Sans Bold';letter-spacing:0px;word-spacing:0px;fill:#000000;fill-opacity:1;stroke:none"
       xml:space="preserve"><tspan
         style="font-size:12px;line-height:1.25;font-family:sans-serif"
         y="753.52344"
         x="582.78497"
         id="tspan3016-3-27-3-4">237</tspan></text>
    <text
       transform="matrix(0,-1,1,0,0,0)"
       id="text3014-7-7-3"
       y="-251.15094"
       x="-825.03082"
       style="font-style:normal;font-variant:normal;font-weight:bold;font-stretch:normal;font-size:12.5px;line-height:125%;font-family:Sans;-inkscape-font-specification:'Sans Bold';letter-spacing:0px;word-spacing:0px;fill:#000000;fill-opacity:1;stroke:none"
       xml:space="preserve"><tspan
         style="font-size:12px;line-height:1.25;font-family:sans-serif"
         y="-251.15094"
         x="-825.03082"
         id="tspan3016-3-5-8">201</tspan></text>
    <text
       id="text3014-7-7-1"
       y="827.46454"
       x="856.46497"
       style="font-style:normal;font-variant:normal;font-weight:bold;font-stretch:normal;font-size:12.5px;line-height:125%;font-family:Sans;-inkscape-font-specification:'Sans Bold';letter-spacing:0px;word-spacing:0px;fill:#000000;fill-opacity:1;stroke:none"
       xml:space="preserve"><tspan
         style="font-size:12px;line-height:1.25;font-family:sans-serif"
         y="827.46454"
         x="856.46497"
         id="tspan3016-3-5-9">249</tspan></text>
    <text
       id="text3014-7-7-38"
       y="827.46454"
       x="894.24677"
       style="font-style:normal;font-variant:normal;font-weight:bold;font-stretch:normal;font-size:12.5px;line-height:125%;font-family:Sans;-inkscape-font-specification:'Sans Bold';letter-spacing:0px;word-spacing:0px;fill:#000000;fill-opacity:1;stroke:none"
       xml:space="preserve"><tspan
         style="font-size:12px;line-height:1.25;font-family:sans-serif"
         y="827.46454"
         x="894.24677"
         id="tspan3016-3-5-7">251</tspan></text>
    <text
       transform="scale(-1,-1)"
       id="text3014-7-7-7"
       y="-883.91046"
       x="-882.17865"
       style="font-style:normal;font-variant:normal;font-weight:bold;font-stretch:normal;font-size:12.5px;line-height:125%;font-family:Sans;-inkscape-font-specification:'Sans Bold';letter-spacing:0px;word-spacing:0px;fill:#000000;fill-opacity:1;stroke:none"
       xml:space="preserve"><tspan
         style="font-size:12px;line-height:1.25;font-family:sans-serif"
         y="-883.91046"
         x="-882.17865"
         id="tspan3016-3-5-1">250</tspan></text>
    <text
       transform="scale(-1,-1)"
       id="text3014-7-7-2"
       y="-884.49622"
       x="-918.36768"
       style="font-style:normal;font-variant:normal;font-weight:bold;font-stretch:normal;font-size:12.5px;line-height:125%;font-family:Sans;-inkscape-font-specification:'Sans Bold';letter-spacing:0px;word-spacing:0px;fill:#000000;fill-opacity:1;stroke:none"
       xml:space="preserve"><tspan
         style="font-size:12px;line-height:1.25;font-family:sans-serif"
         y="-884.49622"
         x="-918.36768"
         id="tspan3016-3-5-0">252</tspan></text>
    <text
       transform="scale(-1,-1)"
       id="text3014-7-7-13"
       y="-812.79407"
       x="104.66534"
       style="font-style:normal;font-variant:normal;font-weight:bold;font-stretch:normal;font-size:12.5px;line-height:125%;font-family:Sans;-inkscape-font-specification:'Sans Bold';letter-spacing:0px;word-spacing:0px;fill:#000000;fill-opacity:1;stroke:none"
       xml:space="preserve"><tspan
         style="font-size:12px;line-height:1.25;font-family:sans-serif"
         y="-812.79407"
         x="104.66534"
         id="tspan3016-3-5-96">209</tspan></text>
    <text
       id="text3014-7-7-23"
       y="911.89441"
       x="73.292191"
       style="font-style:normal;font-variant:normal;font-weight:bold;font-stretch:normal;font-size:12.5px;line-height:125%;font-family:Sans;-inkscape-font-specification:'Sans Bold';letter-spacing:0px;word-spacing:0px;fill:#000000;fill-opacity:1;stroke:none"
       xml:space="preserve"><tspan
         style="font-size:12px;line-height:1.25;font-family:sans-serif"
         y="911.89441"
         x="73.292191"
         id="tspan3016-3-5-15">220</tspan></text>
    <text
       id="text3014-7-7-5"
       y="911.89441"
       x="109.80185"
       style="font-style:normal;font-variant:normal;font-weight:bold;font-stretch:normal;font-size:12.5px;line-height:125%;font-family:Sans;-inkscape-font-specification:'Sans Bold';letter-spacing:0px;word-spacing:0px;fill:#000000;fill-opacity:1;stroke:none"
       xml:space="preserve"><tspan
         style="font-size:12px;line-height:1.25;font-family:sans-serif"
         y="911.89441"
         x="109.80185"
         id="tspan3016-3-5-05">224</tspan></text>
    <text
       transform="scale(-1,-1)"
       id="text3014-7-7-6"
       y="-812.79407"
       x="-255.11807"
       style="font-style:normal;font-variant:normal;font-weight:bold;font-stretch:normal;font-size:12.5px;line-height:125%;font-family:Sans;-inkscape-font-specification:'Sans Bold';letter-spacing:0px;word-spacing:0px;fill:#000000;fill-opacity:1;stroke:none"
       xml:space="preserve"><tspan
         style="font-size:12px;line-height:1.25;font-family:sans-serif"
         y="-812.79407"
         x="-255.11807"
         id="tspan3016-3-5-12">225</tspan></text>
    <text
       id="text3014-7-7-0"
       y="911.89441"
       x="338.86282"
       style="font-style:normal;font-variant:normal;font-weight:bold;font-stretch:normal;font-size:12.5px;line-height:125%;font-family:Sans;-inkscape-font-specification:'Sans Bold';letter-spacing:0px;word-spacing:0px;fill:#000000;fill-opacity:1;stroke:none"
       xml:space="preserve"><tspan
         style="font-size:12px;line-height:1.25;font-family:sans-serif"
         y="911.89441"
         x="338.86282"
         id="tspan3016-3-5-09">232</tspan></text>
    <text
       transform="scale(-1,-1)"
       id="text3014-7-7-36"
       y="-812.79407"
       x="-446.67261"
       style="font-style:normal;font-variant:normal;font-weight:bold;font-stretch:normal;font-size:12.5px;line-height:125%;font-family:Sans;-inkscape-font-specification:'Sans Bold';letter-spacing:0px;word-spacing:0px;fill:#000000;fill-opacity:1;stroke:none"
       xml:space="preserve"><tspan
         style="font-size:12px;line-height:1.25;font-family:sans-serif"
         y="-812.79407"
         x="-446.67261"
         id="tspan3016-3-5-3">233</tspan></text>
    <text
       id="text3014-7-7-8"
       y="911.89441"
       x="503.49738"
       style="font-style:normal;font-variant:normal;font-weight:bold;font-stretch:normal;font-size:12.5px;line-height:125%;font-family:Sans;-inkscape-font-specification:'Sans Bold';letter-spacing:0px;word-spacing:0px;fill:#000000;fill-opacity:1;stroke:none"
       xml:space="preserve"><tspan
         style="font-size:12px;line-height:1.25;font-family:sans-serif"
         y="911.89441"
         x="503.49738"
         id="tspan3016-3-5-4">238</tspan></text>
    <text
       transform="scale(-1,-1)"
       id="text3014-7-7-57"
       y="-812.79407"
       x="-610.60077"
       style="font-style:normal;font-variant:normal;font-weight:bold;font-stretch:normal;font-size:12.5px;line-height:125%;font-family:Sans;-inkscape-font-specification:'Sans Bold';letter-spacing:0px;word-spacing:0px;fill:#000000;fill-opacity:1;stroke:none"
       xml:space="preserve"><tspan
         style="font-size:12px;line-height:1.25;font-family:sans-serif"
         y="-812.79407"
         x="-610.60077"
         id="tspan3016-3-5-056">239</tspan></text>
    <text
       transform="scale(-1,-1)"
       id="text3014-7-7-76"
       y="-812.79407"
       x="-750.69586"
       style="font-style:normal;font-variant:normal;font-weight:bold;font-stretch:normal;font-size:12.5px;line-height:125%;font-family:Sans;-inkscape-font-specification:'Sans Bold';letter-spacing:0px;word-spacing:0px;fill:#000000;fill-opacity:1;stroke:none"
       xml:space="preserve"><tspan
         style="font-size:12px;line-height:1.25;font-family:sans-serif"
         y="-812.79407"
         x="-750.69586"
         id="tspan3016-3-5-89">245</tspan></text>
    <flowRoot
       style="fill:black;stroke:none;stroke-opacity:1;stroke-width:1px;stroke-linejoin:miter;stroke-linecap:butt;fill-opacity:1;font-family:Sans;font-style:normal;font-weight:normal;font-size:40px;line-height:125%;letter-spacing:0px;word-spacing:0px;-inkscape-font-specification:Sans;font-stretch:normal;font-variant:normal;"
       id="flowRoot3558"
       xml:space="preserve"><flowRegion
         id="flowRegion3560"><rect
           style="-inkscape-font-specification:Sans;font-family:Sans;font-weight:normal;font-style:normal;font-stretch:normal;font-variant:normal;"
           y="33.890259"
           x="-41.012192"
           height="345.06812"
           width="1397.243"
           id="rect3562" /></flowRegion><flowPara
         id="flowPara3564" /></flowRoot>  </g>
</svg>
